# xmcd
#
# Track frame offsets:
#   150
#   45264
#   89071
#   139321
#   184400
#   228140
#   272436
#   285493
#   298883
#   313060
#   331492
#   343806
#
# Disc length: 4793 seconds
#
# Revision: 0
# Processed by: cddbd v1.5PL3 Copyright (c) Steve Scherf et al.
# Submitted via: uFREEDB ActiveX Control 1.5
#
DISCID=bb12b70c
DTITLE=Aquarela Junina e Casa de Brinquedos - Aquarela Junina
DYEAR=2004
DGENRE=Children's Music
TTITLE0=Pout Pourri I
TTITLE1=Pout Pourri II
TTITLE2=Pout Pourri de Quadrilhas Marcadas
TTITLE3=Pout Pourri I Instrumental
TTITLE4=Pout Pourri II Instumental
TTITLE5=Pout Pourri de Quadrilhas Marcadas Instrumental
TTITLE6=A Bicileta
TTITLE7=O Robô
TTITLE8=A Bailarina
TTITLE9=O Avião
TTITLE10=O Trenzinho
TTITLE11=Os Super-Heróis
EXTD=
EXTT0=
EXTT1=
EXTT2=
EXTT3=
EXTT4=
EXTT5=
EXTT6=
EXTT7=
EXTT8=
EXTT9=
EXTT10=
EXTT11=
PLAYORDER=
